<?xml version="1.0" standalone="no"?>
<!DOCTYPE svg PUBLIC "-//W3C//DTD SVG 20010904//EN"
 "http://www.w3.org/TR/2001/REC-SVG-20010904/DTD/svg10.dtd">
<svg version="1.0" xmlns="http://www.w3.org/2000/svg"
 width="512.000000pt" height="512.000000pt" viewBox="0 0 512.000000 512.000000"
 preserveAspectRatio="xMidYMid meet">

<g transform="translate(0.000000,512.000000) scale(0.100000,-0.100000)"
fill="#000000" stroke="none">
<path d="M1292 5109 c-148 -19 -335 -81 -462 -152 -177 -98 -379 -283 -502
-457 -330 -465 -417 -1105 -228 -1671 158 -476 528 -870 939 -1001 39 -13 71
-27 71 -33 0 -5 -16 -66 -35 -135 -19 -69 -35 -145 -35 -169 0 -65 34 -128 88
-162 43 -27 52 -29 154 -29 l108 0 7 -27 c15 -53 7 -175 -15 -228 -11 -27 -30
-75 -43 -105 -16 -42 -23 -82 -27 -166 -5 -123 6 -175 61 -299 28 -62 31 -81
31 -160 0 -72 -4 -100 -22 -139 -36 -80 -27 -132 28 -161 73 -38 134 5 170
120 46 149 36 288 -33 439 -30 66 -32 78 -31 176 0 99 2 110 37 188 45 101 62
192 53 289 l-6 73 65 0 c36 0 80 6 98 14 61 25 117 111 117 180 0 10 -15 75
-34 145 -19 69 -36 134 -38 144 -2 15 14 25 87 51 158 57 301 142 432 254 40
34 74 62 77 62 2 0 19 -26 36 -57 156 -278 408 -520 671 -642 46 -22 111 -48
144 -60 47 -15 59 -24 57 -38 -2 -10 -19 -75 -38 -144 -19 -69 -34 -138 -34
-153 0 -37 26 -96 58 -129 47 -49 79 -60 194 -65 l108 -5 6 -34 c13 -70 -1
-175 -34 -249 -68 -154 -78 -290 -32 -439 36 -115 97 -158 170 -120 55 29 64
81 28 161 -18 39 -22 67 -22 139 0 83 4 98 44 195 44 104 44 106 45 227 l0
123 45 0 c136 0 230 80 230 194 0 25 -16 105 -36 177 -19 72 -32 135 -27 139
4 4 44 19 88 34 203 70 428 227 581 404 470 547 568 1363 242 2030 -50 104
-78 132 -127 132 -49 0 -101 -50 -101 -98 0 -10 24 -70 54 -133 254 -537 214
-1164 -105 -1649 -84 -128 -273 -315 -391 -388 -107 -66 -220 -116 -322 -142
-499 -127 -1012 107 -1303 597 -169 285 -242 604 -221 968 30 540 332 1032
763 1245 288 142 586 155 892 39 56 -22 90 -29 108 -25 75 19 101 111 48 165
-34 34 -168 83 -305 113 -132 28 -371 30 -493 4 -240 -51 -474 -168 -643 -321
-35 -32 -64 -56 -66 -54 -2 2 -22 38 -46 79 -232 403 -608 671 -1030 735 -102
16 -246 18 -348 4z m334 -204 c244 -39 478 -167 664 -362 93 -97 196 -243 251
-354 l32 -66 -45 -64 c-153 -216 -264 -502 -304 -787 -19 -140 -19 -401 1
-539 16 -110 67 -320 87 -357 10 -18 3 -28 -63 -89 -237 -221 -494 -327 -789
-327 -232 0 -425 60 -631 195 -99 66 -281 249 -352 356 -325 490 -366 1128
-107 1664 252 520 753 812 1256 730z m12 -3264 c18 -65 32 -124 32 -130 0 -8
-62 -11 -216 -11 -200 0 -215 1 -210 18 2 9 14 53 26 97 12 44 26 95 31 113
l11 32 147 0 148 0 31 -119z m2181 -345 c14 -43 61 -222 61 -230 0 -3 -97 -6
-215 -6 -185 0 -215 2 -215 15 0 8 14 69 31 134 l32 118 148 0 148 0 10 -31z"/>
<path d="M4486 4315 c-41 -22 -55 -44 -56 -88 -1 -114 166 -132 194 -22 10 40
-18 94 -58 110 -43 18 -44 18 -80 0z"/>
</g>
</svg>
